<svg xmlns="http://www.w3.org/2000/svg" width="574" height="140"><path fill-rule="evenodd" d="M545.04 132.674c-.166.494-.398.94-.698 1.336a3.33 3.33 0 0 1-1.151.959c-.468.242-.98.363-1.538.363-.726 0-1.372-.2-1.94-.6a3.818 3.818 0 0 1-1.29-1.545 4.782 4.782 0 0 1-.437-2.035c0-.52.084-1.028.253-1.522.168-.494.404-.938.71-1.333a3.386 3.386 0 0 1 1.163-.95 3.35 3.35 0 0 1 1.541-.359c.536 0 1.035.115 1.494.344.46.228.844.535 1.152.922.308.386.55.83.725 1.333a4.768 4.768 0 0 1 .016 3.087Zm1.7-3.632a6.462 6.462 0 0 0-1.1-1.868 5.23 5.23 0 0 0-1.74-1.329 5.045 5.045 0 0 0-2.231-.505c-.773 0-1.504.16-2.192.481a5.469 5.469 0 0 0-1.759 1.278 6.041 6.041 0 0 0-1.147 1.857 5.889 5.889 0 0 0-.422 2.196 6.08 6.08 0 0 0 .99 3.32c.323.49.704.92 1.143 1.293.439.374.948.667 1.526.88a5.26 5.26 0 0 0 1.83.32 5.17 5.17 0 0 0 2.192-.478 5.335 5.335 0 0 0 1.75-1.274 6.143 6.143 0 0 0 1.14-1.853 5.86 5.86 0 0 0 .02-4.318Zm-21.224-5.149c.016-.065.047-.15.095-.252a.61.61 0 0 1 .245-.26.8.8 0 0 1 .425-.107c.19 0 .391.058.604.174.213.115.445.231.697.347.253.115.518.173.797.173.268 0 .514-.056.738-.17.223-.112.4-.248.532-.405.131-.158.242-.329.335-.513.091-.184.155-.342.189-.473.034-.131.051-.232.051-.3h-1.017a.711.711 0 0 1-.012.11.872.872 0 0 1-.067.194.774.774 0 0 1-.406.406.915.915 0 0 1-.39.079 1.38 1.38 0 0 1-.655-.178c-.22-.118-.452-.236-.693-.354a1.722 1.722 0 0 0-.765-.178 1.48 1.48 0 0 0-.69.161 1.52 1.52 0 0 0-.498.395 2.618 2.618 0 0 0-.315.505 2.31 2.31 0 0 0-.177.477 1.514 1.514 0 0 0-.048.323h1.002c0-.037.008-.088.023-.154Zm-.07 8.537 1.9-5.023 1.845 5.023h-3.745Zm1.048-7.01L522 136.884h1.925l1.198-3.115h4.424l1.207 3.115h1.908l-4.456-11.466h-1.71Zm-10.366 9.119c-.35.292-.713.5-1.089.623a3.66 3.66 0 0 1-1.155.185 3.296 3.296 0 0 1-1.9-.587 3.923 3.923 0 0 1-1.33-1.55 4.673 4.673 0 0 1-.469-2.074c0-.404.05-.804.146-1.198a4.38 4.38 0 0 1 .454-1.128c.205-.357.45-.67.734-.938a3.217 3.217 0 0 1 1.025-.643c.4-.16.83-.24 1.293-.24.289 0 .572.031.847.094.276.063.551.162.824.296.274.134.526.323.757.568.232.244.424.532.576.863l1.42-.954a4.418 4.418 0 0 0-1.715-1.818c-.76-.454-1.642-.682-2.646-.682-.678 0-1.317.11-1.916.327-.6.219-1.118.514-1.554.888a6.039 6.039 0 0 0-1.132 1.289 5.716 5.716 0 0 0-.713 1.553 5.991 5.991 0 0 0-.237 1.66c0 .694.125 1.38.375 2.058.25.679.592 1.291 1.03 1.838a5.532 5.532 0 0 0 1.611 1.364 4.9 4.9 0 0 0 2.055.631c.578.379.867.778.867 1.199 0 .247-.085.434-.256.563-.17.13-.409.194-.714.194-.352 0-.733-.113-1.143-.34l-.45.955c.605.31 1.238.465 1.9.465.558 0 .992-.137 1.302-.41.31-.274.466-.642.466-1.104 0-.573-.277-1.091-.829-1.554a5.856 5.856 0 0 0 2.358-.871c.72-.46 1.228-1.042 1.522-1.747l-1.506-.851c-.19.425-.459.784-.808 1.076Zm-14.519-3.308c0 .431-.03.837-.091 1.218a4.66 4.66 0 0 1-.32 1.108 3.308 3.308 0 0 1-.575.923c-.231.258-.53.464-.895.62a3.183 3.183 0 0 1-1.25.232c-.462 0-.875-.077-1.238-.23a2.509 2.509 0 0 1-.89-.606 3.247 3.247 0 0 1-.58-.915 4.678 4.678 0 0 1-.328-1.116 7.643 7.643 0 0 1-.094-1.234v-5.812h-1.814v5.812c0 .615.054 1.195.162 1.739.107.544.284 1.064.532 1.561.247.497.557.921.93 1.274.374.352.843.633 1.408.843.565.21 1.203.316 1.912.316.857 0 1.61-.15 2.26-.45.649-.3 1.167-.716 1.553-1.25a5.672 5.672 0 0 0 .864-1.813 8.226 8.226 0 0 0 .283-2.22v-5.812h-1.829v5.812Zm-16.816.063h-3.17v-4.274h3.067c.484 0 .91.209 1.277.627.368.418.552.918.552 1.502 0 .594-.163 1.1-.489 1.518-.326.418-.738.627-1.237.627Zm2.949-.036c.41-.628.615-1.331.615-2.109 0-.457-.09-.91-.268-1.356a4.223 4.223 0 0 0-.726-1.199 3.45 3.45 0 0 0-1.132-.852 3.252 3.252 0 0 0-1.423-.323h-4.991v11.466h1.805v-3.99h2.666l2.492 3.99h2.034l-2.697-4.361c.673-.215 1.214-.637 1.625-1.266Zm-22.149-4.238h3.825v9.865h1.83v-9.865h3.808v-1.6h-9.463v1.6Zm-4.641 4.775a2.975 2.975 0 0 0-.796-.607 6.224 6.224 0 0 0-1.033-.45 16.254 16.254 0 0 0-1.294-.359l-.765-.193c-.194-.05-.404-.11-.627-.181a4.05 4.05 0 0 1-.528-.201 3.218 3.218 0 0 1-.39-.23 1.076 1.076 0 0 1-.296-.279 1.351 1.351 0 0 1-.225-.761c0-.504.185-.895.556-1.171.37-.276.93-.414 1.676-.414.63 0 1.243.126 1.837.378.594.253 1.015.516 1.262.789l.82-1.482c-1.172-.863-2.463-1.294-3.872-1.294-.594 0-1.143.077-1.648.23a4.025 4.025 0 0 0-1.317.661 3.02 3.02 0 0 0-.88 1.1 3.432 3.432 0 0 0-.319 1.495c0 .442.069.824.205 1.147.137.324.357.603.659.84.302.237.65.436 1.045.6.394.162.894.322 1.498.48.39.1.698.182.926.245.23.063.482.142.758.237.275.094.489.186.639.275.15.09.295.196.437.32.142.124.242.261.3.414.058.152.086.323.086.512 0 .473-.192.836-.579 1.089-.386.252-.937.378-1.652.378a5.863 5.863 0 0 1-2.314-.477c-.75-.318-1.29-.648-1.621-.99l-.828 1.554c.652.5 1.385.882 2.2 1.147a8.126 8.126 0 0 0 3.856.284c.41-.076.794-.2 1.152-.37.357-.171.662-.383.914-.635.252-.253.45-.563.596-.93a3.38 3.38 0 0 0 .217-1.239c0-.41-.06-.775-.178-1.096a2.517 2.517 0 0 0-.477-.816Zm-15.035 1.912-6.498-8.288h-1.483v11.466h1.806v-8.107l6.412 8.107h1.585v-11.45h-1.822v8.272Zm-15.189-1.033a4.62 4.62 0 0 1-.698 1.336c-.3.398-.683.717-1.15.959a3.3 3.3 0 0 1-1.538.363c-.726 0-1.373-.2-1.94-.6a3.818 3.818 0 0 1-1.29-1.545 4.787 4.787 0 0 1-.438-2.035 4.7 4.7 0 0 1 .253-1.522c.168-.494.405-.938.71-1.333a3.388 3.388 0 0 1 1.162-.95c.47-.24.985-.359 1.543-.359.535 0 1.033.115 1.494.344.46.228.843.535 1.151.922.307.386.55.83.725 1.333a4.75 4.75 0 0 1 .016 3.087Zm.6-5.5a5.238 5.238 0 0 0-1.74-1.329 5.049 5.049 0 0 0-2.231-.505c-.773 0-1.504.16-2.192.481a5.472 5.472 0 0 0-1.759 1.278 6.046 6.046 0 0 0-1.147 1.857 5.876 5.876 0 0 0-.422 2.196 6.08 6.08 0 0 0 .99 3.32c.323.49.704.92 1.143 1.293.439.374.947.667 1.526.88.578.212 1.188.32 1.83.32a5.17 5.17 0 0 0 2.192-.478 5.341 5.341 0 0 0 1.75-1.274 6.154 6.154 0 0 0 1.14-1.853 5.86 5.86 0 0 0 .02-4.318 6.454 6.454 0 0 0-1.1-1.868Zm-15.836 7.365c-.35.292-.713.5-1.089.623a3.66 3.66 0 0 1-1.155.185 3.295 3.295 0 0 1-1.9-.587 3.926 3.926 0 0 1-1.33-1.55 4.673 4.673 0 0 1-.469-2.074c0-.404.049-.804.147-1.198.097-.395.248-.77.453-1.128.205-.357.449-.67.733-.938a3.22 3.22 0 0 1 1.025-.643c.4-.16.831-.24 1.294-.24.289 0 .572.031.848.094s.55.162.823.296c.274.134.526.323.758.568.23.244.423.532.575.863l1.42-.954a4.416 4.416 0 0 0-1.715-1.818c-.76-.454-1.642-.682-2.646-.682a5.56 5.56 0 0 0-1.916.327c-.6.219-1.118.514-1.554.888a6.039 6.039 0 0 0-1.132 1.289 5.706 5.706 0 0 0-.713 1.553 5.98 5.98 0 0 0-.237 1.66c0 .726.137 1.442.41 2.149a6.59 6.59 0 0 0 1.116 1.897 5.35 5.35 0 0 0 1.743 1.348 4.908 4.908 0 0 0 2.204.513c.615 0 1.228-.1 1.837-.3.61-.2 1.17-.507 1.68-.923.51-.415.878-.896 1.104-1.443l-1.506-.851a2.94 2.94 0 0 1-.808 1.076Zm-17.984-2.756h5.118v-1.506h-5.118v-3.257h5.915v-1.6h-7.72v11.465h7.862v-1.6h-6.057v-3.502Zm-10.729-.489h-3.17v-4.274h3.067c.485 0 .91.209 1.278.627.368.418.552.918.552 1.502 0 .594-.163 1.1-.489 1.518-.326.418-.738.627-1.238.627Zm2.95-.036c.41-.628.614-1.331.614-2.109 0-.457-.089-.91-.268-1.356a4.194 4.194 0 0 0-.725-1.199 3.445 3.445 0 0 0-1.132-.852 3.251 3.251 0 0 0-1.423-.323h-4.992v11.466h1.806v-3.99h2.666l2.491 3.99h2.035l-2.697-4.361c.673-.215 1.215-.637 1.624-1.266Zm-26.277.525h5.118v-1.506h-5.118v-3.257h5.914v-1.6h-7.72v11.465h7.862v-1.6h-6.056v-3.502Zm-16.21.891c-.166.494-.399.94-.699 1.336a3.329 3.329 0 0 1-1.15.959 3.3 3.3 0 0 1-1.538.363c-.726 0-1.373-.2-1.94-.6a3.818 3.818 0 0 1-1.29-1.545 4.787 4.787 0 0 1-.438-2.035 4.7 4.7 0 0 1 .253-1.522c.169-.494.405-.938.71-1.333a3.389 3.389 0 0 1 1.163-.95 3.35 3.35 0 0 1 1.542-.359 3.31 3.31 0 0 1 1.494.344c.46.228.844.535 1.151.922.308.386.55.83.726 1.333a4.75 4.75 0 0 1 .016 3.087Zm.599-5.5a5.238 5.238 0 0 0-1.739-1.329 5.049 5.049 0 0 0-2.232-.505c-.772 0-1.503.16-2.192.481a5.472 5.472 0 0 0-1.758 1.278 6.046 6.046 0 0 0-1.148 1.857 5.876 5.876 0 0 0-.422 2.196 6.08 6.08 0 0 0 .99 3.32c.323.49.704.92 1.144 1.293.438.374.947.667 1.525.88.578.212 1.188.32 1.83.32.773 0 1.503-.16 2.192-.478a5.34 5.34 0 0 0 1.751-1.274 6.154 6.154 0 0 0 1.14-1.853 5.867 5.867 0 0 0 .019-4.318 6.454 6.454 0 0 0-1.1-1.868Zm-20.124-3.28c.016-.066.048-.15.095-.253a.611.611 0 0 1 .244-.26.802.802 0 0 1 .426-.107c.19 0 .391.058.604.174.213.115.445.231.698.347.252.115.517.173.796.173.268 0 .514-.056.738-.17.223-.112.4-.248.532-.405.131-.158.243-.329.335-.513.092-.184.155-.342.189-.473a1.28 1.28 0 0 0 .051-.3h-1.017a.703.703 0 0 1-.011.11.89.89 0 0 1-.067.194.774.774 0 0 1-.406.406.915.915 0 0 1-.391.079c-.216 0-.434-.06-.655-.178-.22-.118-.452-.236-.694-.354a1.721 1.721 0 0 0-.765-.178c-.252 0-.482.054-.69.161a1.52 1.52 0 0 0-.496.395 2.636 2.636 0 0 0-.316.505c-.087.181-.146.34-.177.477a1.51 1.51 0 0 0-.047.323h1.001c0-.037.008-.088.023-.154Zm-.07 8.536 1.9-5.023 1.845 5.023h-3.745Zm1.049-7.01-4.495 11.465h1.924l1.199-3.115h4.423l1.207 3.115h1.908l-4.455-11.466h-1.711Zm-10.935 11.465h1.806v-11.466h-1.806v11.466Zm-7.63-3.178-6.498-8.288h-1.482v11.466h1.805v-8.107l6.412 8.107h1.585v-11.45h-1.822v8.272Zm-15.445-2.476c0 .431-.03.837-.091 1.218-.06.382-.167.75-.32 1.108a3.316 3.316 0 0 1-.575.923c-.231.258-.53.464-.895.62a3.183 3.183 0 0 1-1.25.232c-.462 0-.875-.077-1.238-.23a2.505 2.505 0 0 1-.89-.606 3.255 3.255 0 0 1-.58-.915 4.692 4.692 0 0 1-.328-1.116 7.643 7.643 0 0 1-.094-1.234v-5.812h-1.814v5.812c0 .615.054 1.195.162 1.739.107.544.284 1.064.532 1.561.247.497.557.921.93 1.274.374.352.842.633 1.408.843.565.21 1.203.316 1.912.316.857 0 1.61-.15 2.26-.45.649-.3 1.166-.716 1.553-1.25a5.672 5.672 0 0 0 .863-1.813c.19-.676.284-1.416.284-2.22v-5.812h-1.83v5.812ZM541.3 11.187V.344h-4.144v14.601h10.285v-3.758h-6.14Zm-18.744-2.233 1.46-3.586 1.46 3.586h-2.92Zm-.43-8.61-6.097 14.601h4.1l1.01-2.512h5.776l1.03 2.512h4.08L525.864.343h-3.736ZM505.553 6.57h-2.749V3.844h2.749c.944 0 1.503.644 1.503 1.374 0 .709-.58 1.353-1.503 1.353Zm5.475-1.482c0-2.706-2.19-4.746-5.046-4.746h-7.064v14.602h3.886V9.899h1.654l2.899 5.046h4.359l-3.243-5.626c1.546-.816 2.555-2.362 2.555-4.23Zm-28.642 9.856h10.457V11.38h-6.506V9.21h4.294V6.078h-4.294v-2.17h6.506V.344h-10.457v14.601Zm-13.655-3.8h-1.782V4.143h1.782c2.319 0 3.908 1.374 3.908 3.5s-1.59 3.5-3.908 3.5Zm.193-10.801h-5.948v14.601h5.948c4.445 0 7.795-3.114 7.795-7.3 0-4.188-3.35-7.301-7.795-7.301Zm-22.48 14.601H456.9V11.38h-6.506V9.21h4.295V6.078h-4.295v-2.17h6.506V.344h-10.457v14.601Zm-16.36 0h3.95V9.62h4.295V6.313h-4.294v-2.47h6.506v-3.5h-10.457v14.602Zm-22.952-3.693c-1.954 0-3.457-1.546-3.457-3.608 0-2.061 1.503-3.608 3.457-3.608 1.91 0 3.392 1.547 3.392 3.608 0 2.062-1.481 3.608-3.392 3.608Zm0-11.252c-4.273 0-7.666 3.393-7.666 7.644s3.393 7.645 7.666 7.645a7.602 7.602 0 0 0 7.623-7.645A7.602 7.602 0 0 0 407.13 0Zm-17.22 8.052L384.008.344H380.7v14.601h3.887V7.258l5.883 7.687h3.328V.344h-3.886v7.708ZM369.129 6.57h-2.749V3.844h2.75c.944 0 1.502.644 1.502 1.374 0 .709-.58 1.353-1.503 1.353Zm5.475-1.482c0-2.706-2.19-4.746-5.046-4.746h-7.064v14.602h3.886V9.899h1.654l2.899 5.046h4.358l-3.242-5.626c1.546-.816 2.555-2.362 2.555-4.23Zm-28.642 9.856h10.457V11.38h-6.506V9.21h4.294V6.078h-4.294v-2.17h6.506V.344h-10.457v14.601ZM333.166 9.34 329.772.344h-4.23l5.648 14.601h3.929L340.831.344h-4.23l-3.436 8.997Zm-18.959 1.91c-1.953 0-3.456-1.545-3.456-3.607 0-2.061 1.503-3.608 3.456-3.608 1.912 0 3.393 1.547 3.393 3.608 0 2.062-1.481 3.608-3.393 3.608Zm0-11.251c-4.273 0-7.665 3.393-7.665 7.644s3.392 7.645 7.665 7.645a7.602 7.602 0 0 0 7.624-7.645A7.602 7.602 0 0 0 314.206 0Zm-21.212 9.748h3.93c-.344.945-1.332 1.718-2.878 1.718-2.211 0-3.736-1.589-3.736-3.779 0-2.233 1.525-3.886 3.672-3.886 1.374 0 2.555.665 3.2 1.825l3.349-1.997C299.178 1.374 296.709 0 294.024 0c-4.25 0-7.644 3.393-7.644 7.665 0 4.274 3.372 7.623 7.666 7.623 4.037 0 7.086-2.963 7.086-7.515V6.635h-8.138v3.113Zm54.613 68.148h-29.123v29.09h34.353l6.539-10.995-11.769-18.095Zm51.353 2.4c-7.204 0-14.011 2.788-19.166 7.849-5.114 5.021-8.022 11.708-8.197 18.84h54.726c-.175-7.132-3.083-13.819-8.197-18.84-5.154-5.06-11.96-7.848-19.166-7.848Zm-28.443-26.304c0-12.43-10.111-22.54-22.54-22.54h-28.919l29.287 45.077c12.234-.197 22.172-10.292 22.172-22.537Zm-9.532 41.964 7.17 11.03h2.079c.176-7.498 3.226-14.528 8.599-19.807 5.412-5.318 12.56-8.246 20.127-8.246 7.568 0 14.716 2.928 20.128 8.246 5.373 5.28 8.423 12.309 8.599 19.807h3.017V85.477l-31.744-53.374-37.975 63.852Zm-.78 1.31-5.78 9.72h12.102l-6.322-9.72Zm-65.426-34.96h-8.06v44.68h8.06c12.319 0 22.34-10.022 22.34-22.34 0-12.319-10.021-22.34-22.34-22.34Zm-34.649 44.68h25.225v-44.68h-25.225v44.68Zm0-46.044h25.225V31.45h-25.225v29.49Zm46.81-14.746c0-8.13-6.615-14.745-14.746-14.745h-5.475v29.49h5.475c8.13 0 14.745-6.614 14.745-14.745Zm125.129 60.79h11.427L432.07 87.77v19.214Zm58.389 0h25.225V31.45h-25.225v75.535Zm31.074 0h25.226V82.52h-25.226v24.464Zm26.59 0h25.225V82.52h-25.225v24.464Zm-90.917-48.936h27.403V31.45h-27.403v26.6Zm64.328 23.107h25.225V31.45h-25.225v49.706ZM318.484 33.07v43.46h28.237l-28.236-43.46Zm129.987 31.193h7.37V31.45h-7.365c-9.046 0-16.406 7.36-16.406 16.407 0 9.043 7.358 16.403 16.4 16.406Zm16.837-4.85h-8.102v47.572h8.102c13.116 0 23.786-10.67 23.786-23.786 0-13.115-10.67-23.785-23.786-23.785Zm-33.238 25.69 13.015 21.883h10.757V65.627H432.07v19.475ZM13.034 61.744V50.719L8.48 59.084H7.043l-4.577-8.365v11.025H.03V46.27h2.618l5.12 9.46 5.118-9.46h2.618v15.474zm10.313 0h2.437V46.27h-2.437zm12.728-10.94v10.94h-2.437V46.27h2.001l8.77 11.185V46.29h2.458v15.453h-2.139zm18.635 10.94h2.438V46.27H54.71zM74.155 49.91c-.334-.37-.901-.724-1.703-1.064a6.27 6.27 0 0 0-2.48-.512c-1.007 0-1.761.187-2.261.56-.5.372-.75.899-.75 1.58a1.812 1.812 0 0 0 .303 1.027c.088.131.221.257.399.378.177.12.353.223.527.308.173.085.411.176.713.272.301.096.583.177.846.245.262.067.606.154 1.032.26.681.163 1.263.325 1.745.484.483.16.948.362 1.395.607.447.245.805.518 1.075.82.27.301.484.668.643 1.101.16.433.24.926.24 1.48 0 .617-.098 1.174-.293 1.67a3.622 3.622 0 0 1-.803 1.256c-.34.34-.752.626-1.235.857-.482.23-1 .397-1.554.5a9.786 9.786 0 0 1-1.788.154 10.96 10.96 0 0 1-3.416-.537 9.865 9.865 0 0 1-2.97-1.549l1.118-2.096c.447.461 1.176.906 2.187 1.335a7.919 7.919 0 0 0 3.124.644c.965 0 1.708-.17 2.23-.51.521-.341.782-.83.782-1.47 0-.255-.04-.485-.117-.691a1.4 1.4 0 0 0-.405-.559 4.097 4.097 0 0 0-.59-.43 4.748 4.748 0 0 0-.862-.373 17.6 17.6 0 0 0-1.022-.32 76.703 76.703 0 0 0-1.25-.33 15.818 15.818 0 0 1-2.023-.649 5.974 5.974 0 0 1-1.41-.808 2.831 2.831 0 0 1-.888-1.134c-.185-.436-.277-.952-.277-1.548 0-.745.143-1.418.43-2.018a4.083 4.083 0 0 1 1.187-1.484 5.433 5.433 0 0 1 1.778-.894 7.643 7.643 0 0 1 2.224-.309c1.902 0 3.643.582 5.226 1.746l-1.107 2Zm19.879-1.48h-5.14v13.314h-2.469V48.43h-5.16v-2.16h12.77zm12.708-3.757-1.575-.478 1.246-2.395h2.288l-1.959 2.873Zm4.332 14.91v2.161h-10.611V46.27h10.42v2.16H102.9v4.396h6.908v2.033H102.9v4.725h8.174Zm6.886 2.161V46.27h6.736c.674 0 1.314.146 1.921.437a4.65 4.65 0 0 1 1.527 1.149c.412.476.738 1.014.98 1.618.24.603.362 1.213.362 1.83 0 1.05-.277 1.999-.831 2.847-.553.848-1.284 1.417-2.192 1.708l3.64 5.885h-2.746l-3.364-5.385h-3.596v5.385h-2.437Zm2.437-7.545h4.278c.674 0 1.23-.282 1.67-.846.44-.564.66-1.247.66-2.05 0-.787-.248-1.463-.744-2.026-.497-.564-1.071-.846-1.724-.846h-4.14v5.768Zm16.325 7.545h2.437V46.27h-2.437zm9.312-7.737c0-1.022.19-2.01.57-2.964.38-.954.896-1.79 1.549-2.506a7.362 7.362 0 0 1 2.372-1.724 6.92 6.92 0 0 1 2.96-.65c1.07 0 2.075.227 3.011.681a7.067 7.067 0 0 1 2.347 1.794 8.699 8.699 0 0 1 1.484 2.522 7.92 7.92 0 0 1-.026 5.827 8.296 8.296 0 0 1-1.538 2.501 7.201 7.201 0 0 1-2.363 1.719c-.93.43-1.916.644-2.959.644a7.093 7.093 0 0 1-2.469-.431 6.75 6.75 0 0 1-2.059-1.187 8.284 8.284 0 0 1-1.543-1.745 7.97 7.97 0 0 1-.995-2.145 8.22 8.22 0 0 1-.34-2.336Zm7.429 5.64c.752 0 1.444-.162 2.075-.489a4.507 4.507 0 0 0 1.554-1.293 6.279 6.279 0 0 0 .942-1.804 6.402 6.402 0 0 0 .336-2.054c0-.73-.12-1.435-.357-2.112a6.105 6.105 0 0 0-.98-1.799 4.549 4.549 0 0 0-3.57-1.708 4.53 4.53 0 0 0-2.08.484 4.556 4.556 0 0 0-1.57 1.283 6.159 6.159 0 0 0-.958 1.798 6.333 6.333 0 0 0-.341 2.054c0 .98.197 1.895.59 2.746a5.15 5.15 0 0 0 1.741 2.086c.766.54 1.639.809 2.618.809Zm24.053 2.097V46.27h5.491c1.214 0 2.305.2 3.273.601.968.401 1.761.954 2.378 1.66a7.343 7.343 0 0 1 1.41 2.448c.323.926.484 1.928.484 3.007 0 2.341-.686 4.22-2.059 5.635-1.373 1.416-3.201 2.123-5.486 2.123h-5.491Zm5.491-13.313h-3.054v11.153h3.054c1.064 0 1.981-.247 2.751-.74a4.59 4.59 0 0 0 1.73-1.995c.383-.838.575-1.792.575-2.863 0-1.653-.449-2.992-1.347-4.018-.897-1.025-2.134-1.537-3.709-1.537Zm18.38-2.161h2.309l6.014 15.474h-2.576l-1.628-4.203h-5.97l-1.619 4.203h-2.597l6.067-15.474Zm3.64 9.461-2.49-6.779-2.566 6.78h5.055ZM72.083 88.647v3.703H61.057V76.876h10.834v3.704h-6.588v2.18h5.63v3.44h-5.63v2.448zm6.341 3.703V76.876h5.95c1.248 0 2.375.2 3.378.601 1.004.401 1.824.954 2.459 1.66a7.408 7.408 0 0 1 1.458 2.448c.337.926.506 1.928.506 3.007 0 2.341-.712 4.22-2.134 5.635-1.423 1.415-3.312 2.123-5.667 2.123h-5.95Zm5.95-11.77H82.67v8.067h1.703c1.085 0 1.938-.376 2.559-1.129.62-.752.931-1.727.931-2.926 0-1.213-.312-2.186-.936-2.916-.625-.731-1.476-1.097-2.554-1.097Zm20.772 11.898c-.965 0-1.84-.135-2.623-.405-.785-.27-1.444-.638-1.98-1.106a6.19 6.19 0 0 1-1.346-1.682 7.694 7.694 0 0 1-.788-2.091 11.007 11.007 0 0 1-.244-2.368v-7.95h4.256v7.95c0 .532.051 1.025.155 1.48a4.4 4.4 0 0 0 .468 1.228c.21.366.493.653.852.862.357.21.774.314 1.25.314.483 0 .904-.106 1.267-.319a2.31 2.31 0 0 0 .856-.878 4.57 4.57 0 0 0 .469-1.234c.102-.451.154-.935.154-1.453v-7.95h4.246v7.95c0 1.1-.141 2.107-.425 3.022a7.264 7.264 0 0 1-1.261 2.416c-.558.696-1.288 1.238-2.193 1.629-.905.39-1.942.585-3.113.585Zm20.847-15.688c1.454 0 2.739.306 3.853.916 1.113.61 1.944 1.43 2.49 2.458l-3.246 2.31a2.91 2.91 0 0 0-.575-.931 2.597 2.597 0 0 0-.808-.596 4.032 4.032 0 0 0-.89-.298 4.51 4.51 0 0 0-.91-.09c-.581 0-1.103.118-1.563.356a2.961 2.961 0 0 0-1.102.947 4.556 4.556 0 0 0-.622 1.293 4.986 4.986 0 0 0-.214 1.458c0 1.128.324 2.093.969 2.895s1.504 1.202 2.576 1.202c.418 0 .819-.058 1.202-.175a3.14 3.14 0 0 0 1.101-.617 2.58 2.58 0 0 0 .772-1.102l3.47 2.065c-.29.73-.8 1.376-1.528 1.937a7.589 7.589 0 0 1-2.421 1.25 9.06 9.06 0 0 1-2.682.41 7.282 7.282 0 0 1-3.134-.692c-.982-.461-1.81-1.066-2.48-1.814a8.646 8.646 0 0 1-1.586-2.565 7.773 7.773 0 0 1-.579-2.922c0-.95.182-1.882.548-2.793a8.273 8.273 0 0 1 1.532-2.464c.657-.73 1.492-1.32 2.507-1.767 1.014-.447 2.121-.67 3.32-.67Zm15.696.086h4.747l4.927 15.474h-4.31l-.937-3.033h-4.13l-.914 3.033h-4.331l4.948-15.474Zm3.746 9.61-1.373-5.449-1.437 5.45h2.81Zm24.508 2.394c-.376.923-1.064 1.693-2.065 2.31a8.755 8.755 0 0 1-3.32 1.203c.71.71 1.065 1.472 1.065 2.288 0 .695-.226 1.28-.677 1.756-.45.475-1.104.713-1.963.713-.865 0-1.763-.248-2.693-.745l.959-2.118c.318.277.666.415 1.043.415.269 0 .489-.076.66-.229.17-.152.255-.36.255-.622 0-.447-.278-.926-.83-1.437a7.215 7.215 0 0 1-2.783-.931 7.741 7.741 0 0 1-2.172-1.841 8.82 8.82 0 0 1-1.384-2.438 7.685 7.685 0 0 1-.505-2.719c0-.95.183-1.882.549-2.793a8.236 8.236 0 0 1 1.532-2.464c.657-.73 1.492-1.32 2.506-1.767 1.015-.447 2.121-.67 3.32-.67 1.455 0 2.74.305 3.853.915 1.114.61 1.945 1.43 2.49 2.458l-3.245 2.31a2.925 2.925 0 0 0-.575-.931 2.607 2.607 0 0 0-.809-.596 4.032 4.032 0 0 0-.889-.298 4.517 4.517 0 0 0-.91-.09c-.581 0-1.103.118-1.564.356a2.968 2.968 0 0 0-1.102.947c-.273.394-.48.825-.622 1.293a5.016 5.016 0 0 0-.213 1.458c0 1.128.323 2.093.968 2.895.646.802 1.505 1.202 2.576 1.202.419 0 .82-.058 1.202-.175.384-.117.75-.323 1.102-.617.351-.295.609-.662.772-1.102l3.47 2.065Zm10.151-14.058a1.01 1.01 0 0 0-.478.106.812.812 0 0 0-.298.245 1.102 1.102 0 0 0-.149.314 1.79 1.79 0 0 0-.064.255c-.007.054-.01.098-.01.133h-2.204c0-.17.034-.388.1-.654.068-.266.182-.562.342-.889.16-.326.35-.63.574-.91.224-.28.513-.516.867-.707a2.384 2.384 0 0 1 1.15-.288c.32 0 .624.059.915.176.291.117.529.245.714.383.184.138.393.266.627.383.235.117.462.176.681.176.178 0 .337-.038.48-.112a.887.887 0 0 0 .318-.26 1.922 1.922 0 0 0 .267-.601.863.863 0 0 0 .02-.145h2.183c0 .12-.036.305-.107.554a5.653 5.653 0 0 1-.351.878 5.344 5.344 0 0 1-.586.947 2.937 2.937 0 0 1-.893.755c-.37.21-.763.314-1.181.314-.298 0-.591-.055-.878-.165a3.338 3.338 0 0 1-.714-.361 4.074 4.074 0 0 0-.643-.362 1.649 1.649 0 0 0-.682-.165Zm-.957 2.054h4.746l4.928 15.474h-4.31l-.937-3.033h-4.13l-.914 3.033h-4.332l4.949-15.474Zm3.746 9.61-1.373-5.449-1.437 5.45h2.81Zm10.097-1.894a7.52 7.52 0 0 1 .597-2.943 8.1 8.1 0 0 1 1.628-2.496c.688-.716 1.528-1.29 2.517-1.718a7.873 7.873 0 0 1 3.166-.644c1.135 0 2.2.225 3.193.675.993.451 1.822 1.047 2.485 1.788a8.518 8.518 0 0 1 1.565 2.528c.379.944.569 1.909.569 2.895a7.516 7.516 0 0 1-.591 2.927 8.13 8.13 0 0 1-1.617 2.495c-.685.72-1.524 1.297-2.518 1.73a7.85 7.85 0 0 1-3.17.649 7.654 7.654 0 0 1-3.188-.67c-.99-.448-1.818-1.04-2.486-1.778a8.475 8.475 0 0 1-1.574-2.528 7.703 7.703 0 0 1-.575-2.91Zm7.866 4.118c.589 0 1.116-.118 1.58-.356a2.978 2.978 0 0 0 1.112-.953 4.51 4.51 0 0 0 .628-1.309 5.21 5.21 0 0 0 .213-1.5 5.03 5.03 0 0 0-.378-1.98 3.394 3.394 0 0 0-1.202-1.474c-.55-.386-1.208-.58-1.975-.58-.588 0-1.113.117-1.574.351a2.995 2.995 0 0 0-1.108.937c-.276.39-.486.823-.627 1.298a5.167 5.167 0 0 0-.213 1.49c0 .532.072 1.038.218 1.517.145.479.36.912.644 1.298.284.387.656.694 1.117.92.461.228.983.341 1.565.341Z"/></svg>