<svg xmlns="http://www.w3.org/2000/svg" width="280" height="82"><g fill="#3A7C2B" fill-rule="evenodd"><path fill-rule="nonzero" d="M257.34 20.2a21.86 21.86 0 0 0-21.85 21.88 21.87 21.87 0 0 0 37.3 15.47l-3.6-3.6a16.78 16.78 0 0 1-28.62-11.87c0-9.28 7.5-16.8 16.77-16.8a16.8 16.8 0 0 1 16.53 14.06h-21.2a2.55 2.55 0 1 0 0 5.1c.07 0 .13 0 .2-.02h26.21a21.89 21.89 0 0 0-21.74-24.22Zm-48.4 0a21.86 21.86 0 0 0-21.86 21.88c0 12.09 9.8 21.88 21.86 21.88 6.03 0 11.5-2.45 15.44-6.41l-3.6-3.6a16.78 16.78 0 0 1-28.63-11.87c0-9.28 7.51-16.8 16.78-16.8 8.32 0 15.21 6.1 16.52 14.06h-21.19a2.55 2.55 0 1 0 0 5.1c.06 0 .12 0 .19-.02h26.2a21.86 21.86 0 0 0-21.72-24.22Zm-47.72.93a20.4 20.4 0 0 0 .66 40.79 20.1 20.1 0 0 0 10.62-3.08 2.5 2.5 0 0 0 .09-3.53 2.43 2.43 0 0 0-3.17-.35c-1.77 1.2-4.92 2.01-7.53 2.01a15.44 15.44 0 0 1-1.4-30.82l16.68.08V59.8a16.8 16.8 0 0 1-16.77 16.8c-5.34 0-10.08-2.5-13.16-6.39l-3.61 3.62a21.8 21.8 0 0 0 16.77 7.86c12.07 0 21.85-9.8 21.85-21.88v-38.7h-21.03Zm-23.79 32.84a16.74 16.74 0 0 1-11.88 4.94c-9.27 0-16.8-7.54-16.8-16.83a16.8 16.8 0 0 1 16.8-16.83c3.7 0 7.81 1.74 9.85 3.3.96.73 2.64.9 3.67-.06 1.15-1.08.69-3.04-.01-3.6a21.86 21.86 0 0 0-35.35 17.18 21.86 21.86 0 0 0 37.3 15.49l-3.58-3.59Z"/><path d="M40.47 0a40.3 40.3 0 0 1 40.28 40.35A40.28 40.28 0 0 1 3.69 56.8 32.13 32.13 0 0 1 .92 34.17a23.2 23.2 0 0 0-.25 3.2c0 12.44 10.24 22.51 22.87 22.51 12.62 0 22.86-10.06 22.86-22.5a22.2 22.2 0 0 0-4.2-13 24.2 24.2 0 0 1-11.97 41.16 28.23 28.23 0 0 0 6.32-55.7 32.25 32.25 0 0 1 27.9 31.98A32.26 32.26 0 0 1 37.6 73.64a36.28 36.28 0 0 0 34.6-36.26A36.29 36.29 0 0 0 28.33 1.86 40.6 40.6 0 0 1 40.47 0Zm-20.1 17.62c3.6 0 6.88 1.18 9.56 3.15a15.9 15.9 0 0 0-18.3 3.1 12.3 12.3 0 0 1 16.75 6.7 12.3 12.3 0 0 0-17.84-2.96 8.43 8.43 0 0 1 11.65 8.96 8.47 8.47 0 1 0-16.3 4.4 16.19 16.19 0 0 1 14.5-23.36Z"/></g></svg>