<svg xmlns="http://www.w3.org/2000/svg" width="321" height="77"><g fill="#FFF" fill-rule="evenodd"><path d="M138.53 60.38h-26.07V12.74c0-.37-.14-.72-.4-.97a1.4 1.4 0 0 0-1-.4h-2.91a1.44 1.44 0 0 0-1.4 1.4v51.56c0 .75.61 1.37 1.37 1.37h30.37c.76 0 1.38-.62 1.38-1.37v-2.58c0-.74-.6-1.35-1.34-1.37ZM279.8 11.6h-6.69c-.7 0-1.3.55-1.36 1.24l-.01.16v2.92a1.44 1.44 0 0 0 1.4 1.4h2.45v46.87a1.5 1.5 0 0 0 1.37 1.54h2.94a1.5 1.5 0 0 0 1.37-1.54V12.8a1.38 1.38 0 0 0-1.47-1.2Zm-111.47 2.78a2.04 2.04 0 0 0-3.75 0l-1.27 2.86a1944.73 1944.73 0 0 0-10.27 24.17l-9.67 22.35c-.25.54-.11 1.18.33 1.57.27.24.61.37.97.37h2.91c.56 0 1.06-.33 1.27-.84l6.26-15.12h22.68l6.23 15.12c.23.5.72.82 1.27.84h2.94a1.4 1.4 0 0 0 1.3-1.94l-21.2-49.38Zm-10.81 29.67 9.03-21.84 8.97 21.84h-18Zm94.72-32.45h-17.47c-.37 0-.72.16-.97.43-.27.25-.41.6-.4.97v51.2c-.04.78.56 1.46 1.34 1.53h2.9a1.6 1.6 0 0 0 1.45-1.54V41.11h13.69c4.33-.05 15.19-.93 15.44-14.4v-1.16c-.05-4.22-.95-13.95-15.98-13.95Zm0 23.99H239.2V17.12h13.63c5.58.04 9.82.94 9.82 9.17-.13 7.36-4.28 8.96-10.5 9.13l.1.17Zm54.7-1.88c-2.48-.43-5.06-.43-7.5-1a7.82 7.82 0 0 1-6.77-7.73 7.83 7.83 0 0 1 7.77-7.8h13.86c.83-.01 1.52-.7 1.54-1.53v-2.61c0-.85-.7-1.56-1.54-1.57h-13.72a13.68 13.68 0 0 0-13.62 13.61c0 4.43 2.17 8.6 5.8 11.14A24.05 24.05 0 0 0 304 39.07h.1c5.78 0 10.54 4.75 10.54 10.54a10.59 10.59 0 0 1-11.37 10.5h-11.81c-.85 0-1.54.7-1.54 1.54v2.61c.02.84.7 1.52 1.54 1.54h12a16.5 16.5 0 0 0 16.43-16.43 15.88 15.88 0 0 0-12.94-15.66ZM212.8 11.6h-17.46c-.37 0-.72.16-.97.43-.27.25-.42.6-.4.97v51.2c-.05.78.55 1.46 1.33 1.53h2.91c.8-.07 1.43-.74 1.44-1.54V41.11h13.9c4.34-.05 15.4-.95 15.4-14.82l-.04-1.16c-.24-4.42-1.53-13.53-16.11-13.53Zm0 23.99h-13.15V17.12h13.63c5.62.04 9.82.94 9.82 9.17 0 7.36-4.14 8.96-10.37 9.13l.07.17Z"/><path fill-rule="nonzero" d="m36.09 51.12 17.12 5.95-24.32 15.3c-.3-.47-.74-.84-1.26-1.06l8.46-20.2Zm40.6-8.82c.27.57.74 1.02 1.32 1.28l-6.78 17.1a2.71 2.71 0 0 0-1.54-.2L66.82 48.5l9.86-6.2Z" opacity=".8"/><path d="m5.55 40.5 30.54 10.62-8.46 20.2a2.71 2.71 0 0 0-2.6.26L4.54 41.84c.47-.33.83-.8 1.02-1.35ZM55 5.93a2.7 2.7 0 0 0 1.65.27L69.7 60.47c-.93.15-1.7.77-2.07 1.62L36.09 51.12l18.9-45.18Z" opacity=".5"/><path fill-rule="nonzero" d="M79.12 38.38a2.72 2.72 0 1 1 0 5.44 2.72 2.72 0 0 1 0-5.44ZM56.24.8a2.72 2.72 0 1 1 0 5.44 2.72 2.72 0 0 1 0-5.44ZM2.98 36.88a2.72 2.72 0 1 1 0 5.44 2.72 2.72 0 0 1 0-5.44Zm23.6 34.22a2.72 2.72 0 1 1 0 5.45 2.72 2.72 0 0 1 0-5.45Zm43.54-10.66a2.72 2.72 0 1 1 0 5.44 2.72 2.72 0 0 1 0-5.44Z"/></g></svg>