<svg xmlns="http://www.w3.org/2000/svg" width="144" height="144"><defs><linearGradient id="a" x1="32.502%" x2="75.946%" y1="17.119%" y2="55.644%"><stop offset="0%" stop-color="#14B6CC"/><stop offset="100%" stop-color="#0C7280"/></linearGradient><linearGradient id="b" x1="39.857%" x2="69.606%" y1="41.853%" y2="80.888%"><stop offset="0%" stop-color="#14B6CC"/><stop offset="100%" stop-color="#0C7280"/></linearGradient></defs><g fill="none"><path fill="url(#a)" d="M119.681 87.097a3 3 0 0 1 5.721 1.81C118.098 111.998 96.597 128 72 128s-46.098-16.001-53.402-39.094a3 3 0 1 1 5.72-1.81C30.84 107.713 50.039 122 72 122c21.962 0 41.16-14.288 47.681-34.903Z"/><path fill="url(#b)" d="M72 16c25.8 0 48.081 17.593 54.303 42.266a3 3 0 0 1-5.818 1.467C114.931 37.71 95.035 22 72 22c-23.036 0-42.931 15.71-48.485 37.733a3 3 0 0 1-5.818-1.467C23.92 33.593 46.2 16 72 16Z"/><path fill="#0A5C67" d="M.791 81V67h3.454l5.1 8.3-2.687-.02 5.16-8.28h3.333v14h-3.826v-3.74c0-1.2.03-2.28.09-3.24.06-.96.163-1.913.31-2.86l.446 1.173-3.58 5.547h-1.32l-3.506-5.533.453-1.187c.147.893.25 1.81.31 2.75.052.823.082 1.78.088 2.873L4.618 81H.79Zm16.918 0V67h10.187v3.263h-6.377v7.474h6.677V81H17.709Zm1.88-5.557v-3.08h7.507v3.08h-7.507ZM37.57 81.2c-1.095 0-2.103-.179-3.021-.537a7.132 7.132 0 0 1-2.387-1.506 6.678 6.678 0 0 1-1.557-2.307c-.365-.891-.548-1.869-.548-2.933 0-1.056.188-2.027.563-2.915a6.783 6.783 0 0 1 1.587-2.304 7.283 7.283 0 0 1 2.422-1.511c.932-.36 1.956-.54 3.071-.54.658 0 1.305.08 1.94.243a7.101 7.101 0 0 1 1.794.727 6.42 6.42 0 0 1 1.506 1.2l-2.39 2.766a4.192 4.192 0 0 0-.753-.678 3.615 3.615 0 0 0-.95-.473 3.73 3.73 0 0 0-1.18-.175c-.487 0-.947.084-1.38.253a3.27 3.27 0 0 0-1.13.73c-.32.318-.572.705-.757 1.162-.184.456-.276.978-.276 1.565a3.9 3.9 0 0 0 .275 1.495c.183.448.444.83.781 1.148a3.48 3.48 0 0 0 1.222.735 4.666 4.666 0 0 0 1.595.258c.407 0 .795-.06 1.167-.18.37-.12.71-.279 1.016-.478a4.1 4.1 0 0 0 .804-.675l1.896 2.993c-.34.371-.792.704-1.358.997a8.337 8.337 0 0 1-1.877.69 8.754 8.754 0 0 1-2.075.25Z"/><path fill="#FB736C" d="M50.717 81V67h10.186v3.263h-6.376v7.474h6.676V81H50.717Zm1.88-5.557v-3.08h7.506v3.08h-7.506ZM63.325 81V67h3.54l6.794 9.327-.82-.204-.13-1.04-.035-.308a55.13 55.13 0 0 1-.119-1.135 29.54 29.54 0 0 1-.08-1.078c-.015-.271-.025-.56-.03-.866l-.006-1.763V67h3.826v14h-3.58l-7.32-10.007 1.387.354.17 1.42.09.833.022.248c.028.321.05.628.07.919.019.29.031.603.038.935l.01.83V81h-3.827Zm15.689 0V67h10.187v3.263h-6.377v7.474h6.677V81H79.014Zm1.88-5.557v-3.08h7.507v3.08h-7.507ZM91.814 81V67h6.46c.943 0 1.788.194 2.534.582.746.388 1.33.915 1.752 1.583.422.668.633 1.433.633 2.295 0 .938-.211 1.767-.633 2.487a4.452 4.452 0 0 1-1.75 1.686c-.745.405-1.59.607-2.537.607H95.54V81h-3.727Zm7.503 0-3.56-6.32 4.053-.5 3.96 6.823L99.317 81Zm-3.777-7.607h2.2c.342 0 .63-.068.865-.206.234-.138.413-.33.537-.575a1.92 1.92 0 0 0 .185-.872c0-.322-.066-.599-.197-.83a1.325 1.325 0 0 0-.587-.538c-.26-.128-.581-.192-.963-.192h-2.04v3.213Zm16.307 7.807c-1.17 0-2.213-.18-3.132-.542a6.675 6.675 0 0 1-2.345-1.521 6.5 6.5 0 0 1-1.467-2.315c-.333-.89-.5-1.859-.5-2.905 0-1.056.184-2.025.55-2.909a6.654 6.654 0 0 1 1.582-2.303 7.292 7.292 0 0 1 2.444-1.518c.94-.36 1.985-.54 3.131-.54.796 0 1.541.1 2.237.3a7.67 7.67 0 0 1 1.888.815 6.753 6.753 0 0 1 1.448 1.165l-2.366 2.51a5.75 5.75 0 0 0-.922-.719 4.425 4.425 0 0 0-1.065-.48 4.36 4.36 0 0 0-1.27-.175 3.5 3.5 0 0 0-1.431.289c-.435.192-.813.46-1.134.801-.321.342-.572.75-.753 1.224a4.275 4.275 0 0 0-.272 1.54c0 .549.095 1.06.284 1.536a3.593 3.593 0 0 0 1.975 2.038c.458.195.957.292 1.494.292.376 0 .722-.06 1.039-.18.317-.12.591-.283.823-.491.232-.208.415-.456.548-.745.134-.29.2-.601.2-.937v-.55l.517.847h-3.68v-2.89h6.767l.02.213c.01.125.02.278.032.458l.023.45.023.876.002.186c0 .898-.166 1.726-.497 2.485a5.701 5.701 0 0 1-1.397 1.958 6.51 6.51 0 0 1-2.121 1.279c-.815.305-1.706.458-2.675.458Zm8.218-.2v-3.25h2.427v-7.5h-2.427V67h8.814v3.25h-2.427v7.5h2.427V81h-8.814Zm9.292 0 5.586-14h3.2l5.547 14h-3.95l-2.4-6.507-.355-.996a26.05 26.05 0 0 1-.565-1.794 14.498 14.498 0 0 1-.24-1.01l.643-.003a16.597 16.597 0 0 1-.516 1.918c-.062.188-.13.38-.201.576l-.29.78c-.063.17-.128.352-.196.543L133.223 81h-3.866Zm2.733-2.313 1.183-2.797h6.477l1.103 2.797h-8.763Z"/></g></svg>