<svg xmlns="http://www.w3.org/2000/svg" width="144" height="144"><defs><linearGradient id="a" x1="32.502%" x2="75.946%" y1="27.179%" y2="53.918%"><stop offset="0%" stop-color="#183EFF"/><stop offset="100%" stop-color="#04CF00"/></linearGradient><linearGradient id="b" x1="23.377%" x2="85.901%" y1="44.598%" y2="80.587%"><stop offset="0%" stop-color="#183EFF"/><stop offset="100%" stop-color="#04CF00"/></linearGradient></defs><g fill="none"><path fill="url(#a)" d="M19.744 97.376a3 3 0 0 1 4.077 1.175C33.437 115.961 51.748 127 72 127c20.252 0 38.563-11.038 48.179-28.449a3 3 0 1 1 5.252 2.901C114.77 120.756 94.46 133 72 133c-22.459 0-42.769-12.244-53.431-31.548a3 3 0 0 1 1.175-4.076Z"/><path fill="url(#b)" d="M72 11c22.029 0 42.009 11.777 52.838 30.498a3 3 0 0 1-5.194 3.005C109.877 27.617 91.864 17 72 17c-19.865 0-37.877 10.617-47.644 27.503a3 3 0 1 1-5.194-3.005C29.992 22.778 49.972 11 72 11Z"/><path fill="#04CF00" d="M13.797 79.66a9.997 9.997 0 0 0-.764-.413c-.276-.138-.545-.26-.809-.365-.263-.104-.57-.2-.92-.287a4.04 4.04 0 0 0-.967-.13c-.7 0-1.05.215-1.05.647a.68.68 0 0 0 .048.26c.033.078.092.15.176.216.084.066.166.123.247.17.08.048.205.102.373.162.167.06.311.108.431.144a141.12 141.12 0 0 1 1.15.35c.527.162.975.32 1.343.477.369.155.727.346 1.074.57.348.225.626.472.836.741.21.27.376.595.499.975.122.38.184.81.184 1.29a4.41 4.41 0 0 1-.288 1.635c-.191.485-.445.882-.759 1.19-.315.31-.69.565-1.128.769a5.53 5.53 0 0 1-1.343.431 8.054 8.054 0 0 1-1.451.126c-.94 0-1.926-.14-2.956-.418-1.03-.278-1.938-.648-2.723-1.11l1.545-3.144c.06.042.143.094.248.157.104.063.32.177.647.341.326.165.648.31.965.436a8.55 8.55 0 0 0 1.128.346 5.16 5.16 0 0 0 1.209.157c.695 0 1.042-.191 1.042-.575a.59.59 0 0 0-.135-.382c-.09-.11-.24-.212-.449-.305a6.239 6.239 0 0 0-.607-.234c-.194-.063-.47-.146-.826-.251a26.788 26.788 0 0 1-.885-.274c-1.174-.396-2.02-.87-2.539-1.425-.518-.554-.777-1.301-.777-2.241 0-.701.133-1.336.4-1.905a3.808 3.808 0 0 1 1.078-1.393c.452-.36.97-.635 1.55-.827a5.87 5.87 0 0 1 1.851-.287c1.396 0 3.028.47 4.897 1.41l-1.545 2.966Zm9.138 8.904c-.815 0-1.553-.114-2.215-.341-.662-.228-1.219-.54-1.671-.935a5.242 5.242 0 0 1-1.137-1.42 6.505 6.505 0 0 1-.665-1.765 9.285 9.285 0 0 1-.206-2v-6.711h3.594v6.712c0 .449.043.865.13 1.249.087.383.219.729.395 1.037.177.309.417.552.72.728.302.177.654.265 1.055.265.407 0 .764-.09 1.07-.27.305-.179.546-.426.723-.74.176-.315.308-.662.395-1.043.087-.38.13-.789.13-1.226v-6.712h3.585v6.712c0 .928-.12 1.779-.359 2.552a6.13 6.13 0 0 1-1.065 2.04c-.47.586-1.087 1.045-1.85 1.374-.765.33-1.64.494-2.629.494Zm15.877-8.904a9.997 9.997 0 0 0-.764-.413c-.275-.138-.545-.26-.808-.365-.264-.104-.57-.2-.921-.287a4.04 4.04 0 0 0-.966-.13c-.701 0-1.051.215-1.051.647 0 .095.016.182.049.26.033.078.091.15.175.216.084.066.166.123.247.17.081.048.205.102.373.162.168.06.312.108.431.144a141.122 141.122 0 0 1 1.15.35c.528.162.976.32 1.344.477a7.02 7.02 0 0 1 1.074.57c.347.225.626.472.835.741.21.27.376.595.499.975s.184.81.184 1.29a4.43 4.43 0 0 1-.287 1.635c-.192.485-.445.882-.76 1.19-.314.31-.69.565-1.127.769a5.53 5.53 0 0 1-1.344.431 8.054 8.054 0 0 1-1.45.126c-.941 0-1.927-.14-2.957-.418-1.03-.278-1.938-.648-2.723-1.11l1.546-3.144c.06.042.142.094.247.157.105.063.32.177.647.341.327.165.648.31.966.436.317.126.693.241 1.128.346.434.105.837.157 1.208.157.695 0 1.043-.191 1.043-.575a.59.59 0 0 0-.135-.382c-.09-.11-.24-.212-.45-.305a6.239 6.239 0 0 0-.606-.234c-.195-.063-.47-.146-.827-.251a26.788 26.788 0 0 1-.885-.274c-1.174-.396-2.02-.87-2.538-1.425-.518-.554-.777-1.301-.777-2.241 0-.701.133-1.336.4-1.905a3.808 3.808 0 0 1 1.078-1.393c.452-.36.969-.635 1.55-.827a5.87 5.87 0 0 1 1.85-.287c1.396 0 3.029.47 4.898 1.41l-1.546 2.966Zm13.604-1.142H48.67v9.938h-3.594v-9.938h-3.774v-3.126h11.115v3.126Zm10.612 6.811v3.127h-9.309V75.392h9.147v3.126h-5.562v1.842h4.754v2.903h-4.754v2.066h5.724Zm5.257-3.297v6.424h-3.586V75.392h2.795l5.247 6.64v-6.64h3.585v13.064h-2.848l-5.193-6.424Zm20.46-6.64v3.126h-3.748v9.938h-3.594v-9.938H77.63v-3.126h11.115Zm7.134 0 4.16 13.064H96.4l-.79-2.56h-3.487l-.773 2.56h-3.657l4.178-13.064h4.008Zm6.703 0 2.552 8.922 2.525-8.922h3.774l-4.511 13.064h-3.567L98.79 75.392h3.792Zm-8.707 3.513-1.213 4.6h2.372l-1.159-4.6Zm2.93-7.27-1.825 3.2-2.21-.585.925-2.614h3.11ZM121.73 85.33v3.127h-9.309V75.392h9.147v3.126h-5.562v1.842h4.754v2.903h-4.754v2.066h5.724Zm1.671 3.127V75.392h3.585v13.064h-3.585Zm13.748-8.796a9.997 9.997 0 0 0-.764-.413c-.275-.138-.545-.26-.808-.365a7.4 7.4 0 0 0-.921-.287 4.04 4.04 0 0 0-.966-.13c-.701 0-1.052.215-1.052.647a.554.554 0 0 0 .225.476c.084.066.166.123.247.17.08.048.205.102.373.162.168.06.311.108.431.144a141.11 141.11 0 0 1 1.15.35c.528.162.975.32 1.344.477.368.155.726.346 1.073.57.348.225.626.472.836.741.21.27.376.595.499.975s.184.81.184 1.29a4.41 4.41 0 0 1-.288 1.635c-.191.485-.444.882-.759 1.19-.314.31-.69.565-1.127.769a5.53 5.53 0 0 1-1.344.431 8.054 8.054 0 0 1-1.451.126c-.94 0-1.926-.14-2.956-.418-1.03-.278-1.938-.648-2.723-1.11l1.546-3.144c.06.042.142.094.247.157.105.063.32.177.647.341.326.165.648.31.966.436.317.126.693.241 1.127.346.435.105.838.157 1.209.157.695 0 1.042-.191 1.042-.575a.59.59 0 0 0-.135-.382c-.09-.11-.24-.212-.449-.305a6.239 6.239 0 0 0-.606-.234 34.93 34.93 0 0 0-.827-.251 26.788 26.788 0 0 1-.885-.274c-1.174-.396-2.02-.87-2.538-1.425-.519-.554-.778-1.301-.778-2.241 0-.701.134-1.336.4-1.905a3.808 3.808 0 0 1 1.078-1.393c.453-.36.97-.635 1.55-.827a5.87 5.87 0 0 1 1.851-.287c1.396 0 3.029.47 4.897 1.41l-1.545 2.966Z"/><path fill="#183EFF" d="M10.367 68.298c-.754 0-1.435-.108-2.043-.324-.607-.217-1.115-.51-1.523-.878a4.832 4.832 0 0 1-1.023-1.327 6.196 6.196 0 0 1-.595-1.644A8.932 8.932 0 0 1 5 62.282V56.1h2.796v6.182c0 .483.047.928.141 1.336.095.408.239.78.433 1.115.194.335.462.599.803.79.341.192.74.287 1.194.287.46 0 .863-.098 1.207-.295a2.1 2.1 0 0 0 .802-.807c.192-.341.333-.713.425-1.115.091-.402.137-.84.137-1.31V56.1h2.796v6.182c0 .855-.107 1.64-.32 2.355a5.815 5.815 0 0 1-.957 1.901c-.425.552-.985.984-1.681 1.294-.696.311-1.5.466-2.409.466Zm10.318-7.014v6.914h-2.796V56.1h2.222l5.6 7.123V56.1h2.796v12.098h-2.28l-5.542-6.914Zm10.135 6.914V56.1h2.796v12.098H30.82ZM37.685 56.1l2.845 8.828 2.813-8.828h2.945l-4.393 12.098h-2.746L34.722 56.1h2.963Zm18.23 9.644v2.454h-8.503V56.1h8.354v2.455h-5.558V60.9h4.776v2.272h-4.776v2.57h5.708Zm1.698 2.454V56.1h5.459c.732 0 1.406.2 2.022.603a4.189 4.189 0 0 1 1.427 1.54 4.05 4.05 0 0 1 .503 1.942c0 .738-.179 1.425-.537 2.06a3.672 3.672 0 0 1-1.443 1.452l2.662 4.501H64.62l-2.321-3.902H60.41v3.902h-2.796Zm2.796-6.34h2.554c.339 0 .626-.158.862-.474.235-.317.353-.716.353-1.199 0-.471-.133-.86-.4-1.169-.265-.308-.565-.461-.898-.461h-2.47v3.303Zm15.885-2.213c-.128-.161-.54-.394-1.236-.7-.696-.304-1.358-.457-1.985-.457-1.004 0-1.506.333-1.506.998 0 .19.043.35.13.483.085.133.253.258.503.375.25.116.477.208.682.274a29.236 29.236 0 0 0 1.232.358c.504.139.934.276 1.29.412.354.136.697.305 1.027.507.33.203.595.426.795.67.2.244.357.54.474.886.116.347.175.742.175 1.186 0 .533-.084 1.011-.25 1.435a2.965 2.965 0 0 1-.674 1.053 3.674 3.674 0 0 1-1.015.695 4.948 4.948 0 0 1-1.232.395 7.626 7.626 0 0 1-1.364.117 9.748 9.748 0 0 1-2.725-.4c-.919-.266-1.73-.632-2.434-1.098l1.223-2.438c.06.072.215.18.462.324.247.145.549.301.907.47.357.17.776.315 1.256.437s.936.183 1.369.183c.987 0 1.481-.3 1.481-.898 0-.1-.014-.193-.042-.28a.636.636 0 0 0-.141-.236 2.628 2.628 0 0 0-.2-.196 1.304 1.304 0 0 0-.291-.179 7.392 7.392 0 0 0-.341-.154c-.1-.041-.239-.09-.416-.145a93.561 93.561 0 0 1-.45-.142 14.433 14.433 0 0 0-.515-.15 14.176 14.176 0 0 1-.541-.158 9.768 9.768 0 0 1-1.452-.557 4.137 4.137 0 0 1-1.003-.682 2.364 2.364 0 0 1-.607-.903 3.402 3.402 0 0 1-.192-1.194c0-.622.12-1.185.358-1.69a3.4 3.4 0 0 1 .97-1.24 4.52 4.52 0 0 1 1.418-.744A5.543 5.543 0 0 1 73.157 56c1.409 0 2.862.441 4.36 1.323l-1.223 2.322Zm3.211 8.553V56.1h2.796v12.098h-2.796Zm5.11 0V56.1h4.518c.97 0 1.843.157 2.617.47.774.313 1.407.746 1.901 1.298s.87 1.19 1.128 1.914c.257.724.386 1.507.386 2.35 0 1.831-.55 3.3-1.651 4.406-1.101 1.107-2.562 1.66-4.381 1.66h-4.518Zm4.518-9.643H87.41v7.189h1.723c.998 0 1.78-.334 2.342-1.003.563-.668.845-1.538.845-2.608 0-1.082-.283-1.949-.85-2.6-.565-.653-1.344-.978-2.337-.978Zm10.26-2.455h3.012l4.16 12.098h-2.862l-.94-2.712H99l-.923 2.712h-2.863L99.392 56.1Zm2.912 7.464-1.415-4.652-1.448 4.652h2.863Zm5.45 4.634V56.1h4.518c.971 0 1.843.157 2.617.47.774.313 1.408.746 1.901 1.298.494.552.87 1.19 1.128 1.914a6.95 6.95 0 0 1 .387 2.35c0 1.831-.55 3.3-1.652 4.406-1.1 1.107-2.561 1.66-4.38 1.66h-4.519Zm4.518-9.643h-1.722v7.189h1.722c.999 0 1.78-.334 2.343-1.003.563-.668.844-1.538.844-2.608 0-1.082-.283-1.949-.849-2.6-.565-.653-1.345-.978-2.338-.978Zm16.184 7.189v2.454h-8.504V56.1h8.355v2.455h-5.559V60.9h4.776v2.272h-4.776v2.57h5.708Zm8.962-6.1c-.128-.16-.54-.393-1.236-.698-.696-.305-1.357-.458-1.984-.458-1.004 0-1.506.333-1.506.998 0 .19.043.35.129.483.086.133.254.258.503.375.25.116.477.208.682.274a29.236 29.236 0 0 0 1.232.358c.505.139.935.276 1.29.412.355.136.697.305 1.027.507.33.203.595.426.795.67.2.244.358.54.474.886.117.347.175.742.175 1.186 0 .533-.083 1.011-.25 1.435a2.965 2.965 0 0 1-.674 1.053 3.674 3.674 0 0 1-1.015.695 4.948 4.948 0 0 1-1.231.395 7.626 7.626 0 0 1-1.365.117 9.748 9.748 0 0 1-2.725-.4c-.918-.266-1.73-.632-2.434-1.098l1.223-2.438c.061.072.215.18.462.324.247.145.55.301.907.47.358.17.777.315 1.257.437.48.122.936.183 1.368.183.988 0 1.481-.3 1.481-.898 0-.1-.013-.193-.041-.28a.636.636 0 0 0-.142-.236 2.628 2.628 0 0 0-.2-.196 1.304 1.304 0 0 0-.29-.179 7.392 7.392 0 0 0-.342-.154c-.1-.041-.238-.09-.416-.145a93.554 93.554 0 0 1-.45-.142 14.433 14.433 0 0 0-.515-.15 14.176 14.176 0 0 1-.54-.158 9.768 9.768 0 0 1-1.453-.557 4.137 4.137 0 0 1-1.002-.682 2.364 2.364 0 0 1-.608-.903 3.402 3.402 0 0 1-.191-1.194 3.9 3.9 0 0 1 .358-1.69 3.4 3.4 0 0 1 .969-1.24 4.52 4.52 0 0 1 1.419-.744 5.543 5.543 0 0 1 1.722-.262c1.409 0 2.862.441 4.36 1.323l-1.223 2.322Z"/></g></svg>