<svg xmlns="http://www.w3.org/2000/svg" width="335" height="82"><g fill="#FFF" fill-rule="evenodd"><path d="M335 0v81H220V0h115Zm-57.53 9.66-47.83 30.83 47.83 30.84 47.85-30.84-47.85-30.83Zm.3 10.8a20.35 20.35 0 0 1 20.08 24.01l-.07.33a20.4 20.4 0 0 1-20 16.24c-11.27 0-20.4-9.1-20.4-20.29 0-11.2 9.13-20.29 20.4-20.29Zm-.38 35.63-.12.27-.3.03.23.19-.07.28.26-.16.25.16-.07-.28.23-.2-.3-.02-.11-.27Zm10.33-.69-.21.52-.57.04.44.35-.14.54.48-.3.47.3-.14-.54.43-.35-.56-.04-.2-.52Zm-4.24-1.75-.25.6-.65.05.5.42-.16.63.56-.35.55.35-.16-.63.5-.42-.65-.04-.24-.61Zm4.26-.48-.24.6-.66.04.5.42-.16.64.56-.35.56.35-.17-.64.5-.42-.65-.04-.24-.6Zm-2.42-1.35-.21.52-.56.04.43.35-.14.55.48-.3.47.3-.14-.55.43-.35-.56-.04-.2-.52Zm4.35-.44-.2.52-.57.03.44.36-.15.54.48-.3.47.3-.13-.54.43-.36-.56-.03-.2-.52Zm-1.99-.02-.2.51-.56.04.43.36-.14.54.47-.3.48.3-.15-.54.44-.36-.56-.04-.2-.51Zm-5.85-.04-.2.51-.57.04.44.36-.15.54.48-.3.47.3-.14-.54.43-.36-.55-.04-.21-.51Zm-12.4-.72-.28.72-.78.05.6.5-.2.75.67-.42.66.42-.2-.76.6-.49-.78-.05-.28-.72Zm22.12-.2-.24.6-.66.04.5.42-.15.64.55-.35.56.35-.17-.64.51-.42-.66-.04-.24-.6Zm-14.04-1.59-.28.72-.78.06.6.49-.2.75.66-.42.67.42-.2-.75.6-.5-.77-.05-.3-.72Zm15 0-.25.6-.66.04.51.42-.17.64.56-.35.56.35-.17-.64.51-.42-.66-.04-.24-.6Zm-26.06.03-.2.52-.57.04.44.36-.14.53.47-.3.47.3-.14-.53.44-.36-.56-.04-.21-.52Zm25.25-2.18-.28.73-.78.04.6.5-.2.75.66-.41.66.41-.19-.75.6-.5-.77-.04-.3-.73Zm2.95.5-.2.5-.57.05.44.35-.14.54.47-.3.48.3-.15-.54.44-.35-.56-.04-.2-.52Zm-27.76-.63-.24.6-.66.05.5.41-.16.64.56-.35.56.35-.17-.64.51-.4-.66-.05-.24-.61Zm-6.27-.16-.24.61-.66.04.51.42-.16.63.55-.34.56.34-.16-.63.5-.42-.65-.04-.25-.61Zm16 .2-.15.4-.42.02.32.27-.1.4.35-.22.35.22-.1-.4.32-.27-.42-.03-.15-.38ZM265.9 32.73c-2.41.01-4.78.19-7.09.53-.26.65-.5 1.33-.69 2.02a48.58 48.58 0 0 1 39.17 11.4c.16-.5.3-1.02.4-1.54l.12-.53-.46-.38a48.9 48.9 0 0 0-31.45-11.5Zm9.37 12.35-.21.52-.56.03.43.36-.14.54.48-.3.47.3-.14-.54.43-.36-.56-.03-.2-.52Zm-12.33-.62-.3.73-.77.05.6.49-.19.75.66-.4.66.4-.2-.75.6-.5-.78-.04-.28-.73Zm16.58.21-.24.61-.66.04.5.42-.16.64.56-.35.56.35-.16-.64.5-.42-.66-.04-.24-.6Zm17.05-.66c.27.22.33.56.17.84l-.06.08a.66.66 0 0 1-.94.1.64.64 0 0 1-.18-.84l.06-.09a.66.66 0 0 1 .95-.09Zm-.66.2-.06.06c-.13.18-.12.42.05.55.16.13.35.1.49 0l.06-.06a.39.39 0 0 0-.05-.56.38.38 0 0 0-.43-.03l-.06.05Zm-31.24-.5-.15.4-.42.02.33.26-.11.41.35-.22.36.22-.1-.4.32-.27-.42-.03-.16-.39Zm13-.75-.23.61-.66.04.5.42-.16.63.56-.35.56.35-.17-.63.51-.42-.66-.04-.24-.61Zm16.73-.56c.15.1.25.24.3.4l-.25.08a.61.61 0 0 0-.2-.29c-.06-.05-.12-.05-.16-.02l-.03.02c-.04.07-.02.12.13.3.15.17.22.32.15.47l-.04.07c-.14.2-.39.2-.6.05a.77.77 0 0 1-.34-.48l.25-.06c.04.14.1.25.22.34.07.05.14.06.18.04l.04-.03c.03-.05.03-.1-.06-.22l-.06-.06c-.17-.2-.26-.35-.11-.55.13-.2.37-.22.58-.06Zm-24.34-1.86-.24.61-.65.04.5.42-.16.63.55-.35.56.35-.16-.63.5-.42-.65-.04-.25-.61Zm22.31.48c.16.1.26.24.31.4l-.23.1a.56.56 0 0 0-.21-.29c-.07-.04-.14-.05-.17-.02l-.03.03c-.03.05-.02.09.04.17l.1.11c.18.2.26.35.13.53-.13.22-.37.23-.6.08a.76.76 0 0 1-.35-.45l.25-.08a.6.6 0 0 0 .23.33c.08.05.15.06.2.03l.02-.03c.04-.04.03-.1-.07-.2l-.06-.07c-.17-.19-.28-.34-.14-.55.13-.2.36-.22.58-.09Zm-2.52-1.5.82.48-.12.21-.59-.34-.13.23.52.3-.12.2-.52-.29-.13.23.59.34-.12.22-.84-.48.64-1.1Zm-7.34-1.02-.2.52-.57.04.44.35-.14.55.47-.3.48.3-.15-.55.44-.35-.56-.04-.21-.52Zm5.01-.2.52.26c.14.08.24.18.27.3.03.06.02.14 0 .22l-.03.07a.4.4 0 0 1-.42.23l.06.55-.29-.15-.06-.48-.2-.1-.18.36-.24-.13.57-1.13Zm.13.35-.17.32.26.13c.1.05.19.04.24-.02l.03-.05c.05-.1 0-.2-.11-.25l-.25-.13Zm-2.05-1.27c.2.1.31.2.39.36l-.25.12a.45.45 0 0 0-.26-.25c-.18-.08-.4.02-.49.21-.1.22-.02.44.19.53.1.04.18.05.27.04l.08-.17-.26-.11.1-.22.5.22-.22.5a.85.85 0 0 1-.58-.03c-.33-.15-.47-.47-.38-.78l.03-.09a.66.66 0 0 1 .88-.33ZM261.17 36l-.29.73-.78.05.6.49-.2.75.67-.4.65.4-.19-.75.6-.5-.77-.04-.3-.73Zm21.8.29c.36.14.52.5.39.84a.66.66 0 0 1-.87.38.64.64 0 0 1-.42-.75l.02-.1c.13-.33.5-.5.87-.37Zm-.57.4-.03.07c-.07.21.01.43.22.5.19.08.37 0 .46-.15l.03-.07c.08-.2 0-.43-.21-.51a.37.37 0 0 0-.42.1l-.05.06Zm-2.53-1.42.56.17c.15.04.25.13.3.23.05.09.06.2.02.31a.4.4 0 0 1-.38.3l.16.52-.31-.1-.14-.46-.2-.06-.13.39-.26-.09.38-1.21Zm.2.31-.11.35.26.08c.14.04.23 0 .26-.1.04-.12-.02-.2-.15-.24l-.26-.09Zm-2.64-.98.5.13c.3.07.43.29.37.54-.08.3-.34.38-.6.31l-.21-.05-.1.37-.27-.07.31-1.23Zm6.1-1.1-.28.71-.78.05.6.5-.2.75.67-.41.65.41-.19-.75.6-.5-.77-.05-.3-.72Zm-5.88 1.41-.1.37.21.06c.14.03.23-.03.26-.13.04-.13-.03-.21-.17-.25l-.2-.05Zm-4.22-1.13.94.16-.04.24-.67-.11-.05.26.6.1-.04.23-.6-.1-.04.27.68.11-.04.25-.95-.17.2-1.24Zm-4.28-.5.3.03.3.56.37-.5.3.02-.12 1.26-.27-.03.07-.81-.4.5-.32-.56-.06.82-.28-.03.1-1.25Zm-7.36.55.02.1c.03.36-.23.67-.62.71a.64.64 0 0 1-.71-.49l-.02-.1a.65.65 0 0 1 .62-.7c.32-.04.58.14.68.4l.03.08Zm1.96-.51a.4.4 0 0 1 .12.28c.01.21-.1.34-.25.4l.33.45-.33.01-.28-.4-.23.02.03.4-.29.02-.05-1.27.58-.02c.16-.01.29.03.37.11Zm3.38-.14.96.04v.25l-.7-.03v.26l.6.02-.01.25-.6-.03-.02.27.7.03-.01.24-.97-.04.05-1.26Zm-1.73-.02c.4 0 .68.27.68.62 0 .36-.27.64-.67.64h-.5v-1.26h.5Zm-4.3.43a.38.38 0 0 0-.35.35v.09c.02.22.2.38.42.36.2-.02.33-.17.34-.35v-.08a.4.4 0 0 0-.42-.37Zm4.3-.18h-.21v.76h.22c.23 0 .38-.15.38-.38a.37.37 0 0 0-.38-.38Zm-2.03.05h-.28l.02.37h.28c.14-.01.2-.09.2-.2 0-.12-.09-.18-.22-.17Z"/><path fill-rule="nonzero" d="M52.18 75.46H39.74v-20.6H51.7v3.78h-7.3v4.58h6.78v3.76H44.4v4.72h7.77v3.76Zm2.2 0v-20.6h7.34c7.37 0 11.05 3.35 11.05 10.04 0 3.21-1.01 5.77-3.02 7.69-2 1.91-4.69 2.87-8.04 2.87h-7.34Zm4.67-16.82V71.7h2.31c2.03 0 3.62-.6 4.77-1.81 1.15-1.2 1.73-2.85 1.73-4.93 0-1.96-.57-3.5-1.72-4.63-1.14-1.13-2.75-1.69-4.8-1.69h-2.3Zm32.94 7.9c0 6.2-2.9 9.28-8.7 9.28-5.63 0-8.45-3.01-8.45-9.06v-11.9h4.69v11.96c0 3.33 1.31 5 3.93 5 2.57 0 3.86-1.61 3.86-4.83V54.87H92v11.67Zm18.26 8.2c-1.52.72-3.5 1.08-5.93 1.08-3.19 0-5.68-.92-7.51-2.78-1.82-1.86-2.73-4.33-2.73-7.43 0-3.3 1.02-5.96 3.07-8.01s4.7-3.08 7.97-3.08c2.03 0 3.73.25 5.12.76v4.47a9.12 9.12 0 0 0-4.74-1.24c-1.95 0-3.52.6-4.72 1.82-1.2 1.22-1.8 2.87-1.8 4.95 0 1.98.57 3.57 1.7 4.76a6 6 0 0 0 4.55 1.77c1.83 0 3.49-.44 5-1.32v4.24h.02Zm20.72.72h-5.08l-1.48-4.58h-7.37l-1.46 4.58h-5.06l7.54-20.6h5.54l7.37 20.6Zm-7.63-8.14-2.23-6.92a8.46 8.46 0 0 1-.35-1.85h-.11c-.05.6-.17 1.2-.37 1.8l-2.25 6.97h5.3Zm23.96 7.41c-1.51.73-3.49 1.1-5.93 1.1-3.18 0-5.68-.93-7.5-2.79-1.83-1.86-2.74-4.33-2.74-7.43 0-3.3 1.02-5.96 3.07-8.01s4.71-3.08 7.98-3.08c2.02 0 3.73.25 5.11.76v4.47a9.12 9.12 0 0 0-4.74-1.24c-1.95 0-3.52.6-4.71 1.82-1.2 1.22-1.8 2.87-1.8 4.95a6.6 6.6 0 0 0 1.7 4.76 6 6 0 0 0 4.55 1.77c1.82 0 3.48-.44 5-1.32v4.24Zm-8.42 7.21v-1.98c.34.06.69.08 1.05.08 1.18 0 1.77-.34 1.77-1.04 0-.64-.53-.95-1.6-.95l-.54.03v-2.62h2.49v1.18c1.8.08 2.7.87 2.7 2.39 0 1.98-1.53 2.97-4.6 2.97-.44 0-.86-.02-1.27-.06Zm29.15-6.48h-5.1l-1.46-4.58h-7.38l-1.46 4.58h-5.06l7.55-20.6h5.53l7.38 20.6ZM163 48.48a5.2 5.2 0 0 1-.8 3.12 2.57 2.57 0 0 1-2.2 1.1 5.2 5.2 0 0 1-2.43-.62 4.85 4.85 0 0 0-1.77-.68c-.78 0-1.16.52-1.16 1.55h-2.04c0-1.33.27-2.36.8-3.1a2.58 2.58 0 0 1 2.22-1.1c.79 0 1.6.23 2.43.7a4.1 4.1 0 0 0 1.73.63c.76 0 1.13-.53 1.13-1.6H163Zm-2.61 18.84-2.23-6.92a8.46 8.46 0 0 1-.34-1.85h-.12c-.04.6-.17 1.2-.36 1.8l-2.26 6.97h5.3Zm17.86 8.5a9.68 9.68 0 0 1-7.26-2.88c-1.87-1.92-2.8-4.42-2.8-7.5 0-3.26.95-5.9 2.85-7.9 1.9-2.02 4.41-3.03 7.55-3.03 2.95 0 5.35.96 7.17 2.9 1.83 1.92 2.74 4.46 2.74 7.6 0 3.24-.95 5.85-2.84 7.83a9.8 9.8 0 0 1-7.4 2.98Zm.2-17.3a4.7 4.7 0 0 0-3.9 1.83c-.96 1.22-1.44 2.83-1.44 4.85 0 2.04.48 3.65 1.45 4.84a4.63 4.63 0 0 0 3.78 1.78 4.7 4.7 0 0 0 3.84-1.74c.94-1.15 1.41-2.75 1.41-4.8 0-2.13-.46-3.8-1.37-4.99a4.48 4.48 0 0 0-3.76-1.77Zm-24.12-12.33v-20.6h5.73c7.31 0 10.96 3.35 10.96 10.04 0 3.18-1.01 5.74-3.04 7.67-2.04 1.93-4.75 2.89-8.15 2.89h-5.5Zm2.43-18.4V44h3.1c2.72 0 4.84-.72 6.35-2.17 1.51-1.44 2.27-3.5 2.27-6.14 0-5.28-2.83-7.92-8.48-7.92h-3.24ZM190 46.18h-2.69l-2.2-5.78h-8.79l-2.06 5.78h-2.7l7.95-20.6h2.51l7.98 20.6Zm-5.69-7.94-3.25-8.78c-.1-.29-.21-.75-.32-1.38h-.05c-.1.58-.21 1.05-.34 1.38l-3.22 8.78h7.18ZM21.14 46.19h-2.41V32.37a46 46 0 0 1 .2-4.01h-.06l-.14.53c-.15.57-.3 1.02-.43 1.34l-7.14 15.96H9.98L2.9 30.48c-.2-.46-.41-1.17-.62-2.11h-.06c.07.76.1 1.99.11 3.67v14.15H0V25.6h3.21l6.36 14.37c.5 1.1.81 1.92.96 2.47h.08l.33-.87c.26-.7.5-1.26.67-1.66l6.5-14.3h3.03V46.2Zm6.73 0h-2.43v-20.6h2.43v20.6Zm21.04 0h-2.98L35.26 29.77a7.06 7.06 0 0 1-.67-1.29h-.09c.08.44.12 1.38.12 2.83V46.2h-2.43V25.6h3.15l10.74 16.7c.24.39.4.67.49.84h.06c-.1-.55-.14-1.45-.15-2.71V25.59h2.43v20.6Zm6.74 0h-2.43v-20.6h2.43v20.6Zm3.36-.83v-2.84c.33.28.72.54 1.18.78a10.02 10.02 0 0 0 2.97.94c.51.09.98.14 1.41.14 1.5 0 2.61-.28 3.35-.83a2.79 2.79 0 0 0 1.11-2.38c0-.55-.12-1.04-.37-1.45a4.15 4.15 0 0 0-1.02-1.12 9.98 9.98 0 0 0-1.54-.98l-.92-.48-1-.5c-.72-.37-1.4-.74-2.02-1.11a8.53 8.53 0 0 1-1.64-1.23 4.7 4.7 0 0 1-1.5-3.53 4.86 4.86 0 0 1 2.27-4.17 7.45 7.45 0 0 1 2.3-1 10.5 10.5 0 0 1 2.64-.34c2.05 0 3.54.25 4.47.73v2.72a8.16 8.16 0 0 0-4.71-1.26 7.9 7.9 0 0 0-1.6.16c-.52.11-1 .3-1.41.54a3.2 3.2 0 0 0-1.01.96c-.26.4-.4.87-.4 1.43a2.9 2.9 0 0 0 1.18 2.42c.39.31.86.62 1.41.92.55.3 1.2.62 1.92.98.74.36 1.44.74 2.11 1.15.67.4 1.25.84 1.75 1.33a4.74 4.74 0 0 1 1.63 3.67c0 1.02-.2 1.87-.6 2.58-.4.7-.93 1.27-1.61 1.71-.68.44-1.46.76-2.35.96a13.08 13.08 0 0 1-4.02.21 17.43 17.43 0 0 1-2.9-.6 5.39 5.39 0 0 1-1.08-.51Zm27.83-17.58h-5.99v18.41h-2.43V27.78h-5.97v-2.19h14.39v2.19Zm13.15 18.4h-11V25.6h10.54v2.19h-8.1v6.85h7.49v2.16h-7.5V44H100v2.19ZM97.89 19l-3.79 4.71h-1.83L95.49 19h2.4Zm19.86 27.19h-2.89l-3.47-5.78c-.32-.53-.63-1-.93-1.37a5.4 5.4 0 0 0-.92-.93 3.23 3.23 0 0 0-1.01-.52 4.18 4.18 0 0 0-1.22-.17h-2v8.76h-2.43V25.6h6.2a9 9 0 0 1 2.5.34c.77.22 1.43.57 2 1.03.56.46 1 1.03 1.32 1.71.32.69.48 1.5.48 2.41 0 .72-.1 1.38-.32 1.97a5.1 5.1 0 0 1-.93 1.6c-.4.47-.88.87-1.44 1.2a7.2 7.2 0 0 1-1.9.77v.06a4.25 4.25 0 0 1 1.63 1.22c.23.27.46.58.69.92l.43.67.33.51 3.88 6.19Zm-12.44-18.42v7.47h3.3c.61 0 1.17-.09 1.69-.27a3.53 3.53 0 0 0 2.22-2.04c.2-.49.31-1.04.31-1.65 0-1.1-.36-1.96-1.08-2.58-.72-.62-1.75-.93-3.11-.93h-3.33Zm16.53 18.42h-2.42v-20.6h2.42v20.6Zm12.66.35c-2.94 0-5.3-.96-7.07-2.89-1.76-1.93-2.65-4.43-2.65-7.51 0-3.31.9-5.96 2.7-7.93 1.8-1.98 4.26-2.97 7.37-2.97 2.86 0 5.17.96 6.92 2.87 1.75 1.92 2.62 4.42 2.62 7.52 0 3.36-.9 6.02-2.69 7.97-1.79 1.95-4.2 2.94-7.2 2.94Zm.17-19.11a6.7 6.7 0 0 0-5.3 2.34c-1.37 1.56-2.05 3.61-2.05 6.15 0 2.54.67 4.58 2 6.12a6.5 6.5 0 0 0 5.18 2.32c2.27 0 4.07-.73 5.38-2.2 1.31-1.48 1.97-3.55 1.97-6.2 0-2.72-.64-4.82-1.91-6.3a6.59 6.59 0 0 0-5.27-2.23Z"/></g></svg>