<svg xmlns="http://www.w3.org/2000/svg" width="381" height="83"><g fill="#FFF" fill-rule="evenodd"><path d="M100.5 17h11.468v30.425c0 7.913 3.652 11.582 10.108 11.582 6.594 0 9.887-3.812 9.887-11.94V17H143.5v30.785C143.5 61.67 135.263 68 121.855 68c-12.828 0-21.355-5.83-21.355-19.71V17Zm77.601 50V44.572c0-5.36-1.513-8.07-5.955-8.07-4.594 0-7.178 3.925-7.178 10.21V67h-11.254V37.568c0-3.93-.145-6.716-.214-8.856h10.757c.145 1.356.497 5.715.573 7.858 1.934-6.072 6.742-8.57 12.263-8.57 9.678 0 12.407 6.499 12.407 13.64V67h-11.399Zm32.51-21.674v13.378h6.652c5.235 0 8.772-1.72 8.772-6.867 0-5.08-4.103-6.51-9.127-6.51h-6.298Zm0-20.171v11.658h5.023c5.378 0 7.71-1.788 7.71-5.866 0-4.218-2.475-5.792-7.778-5.792h-4.956ZM199.5 67V17h17.122c11.465 0 18.042 4.217 18.042 12.661 0 5.65-2.964 9.368-8.915 10.8 7.573 1.003 11.751 5.579 11.751 12.232C237.5 62.78 229.43 67 218.32 67H199.5Z"/><path d="M249.5 42h16.788v4.399h-11.133v5.794h10.037v4.435h-10.037v5.794H266.5V67h-17V42Zm33.298 13.498c0-2.747-.752-4.138-2.976-4.138-2.295 0-3.586 2.014-3.586 5.237V67h-5.63V51.909c0-2.014-.07-3.444-.106-4.543h5.378c.036.55.215 2.492.287 4.03.968-2.894 3.12-4.396 6.131-4.396 4.84 0 6.204 3.334 6.204 6.996V67h-5.702V55.498Zm15.595-.692h6.39v-.072c0-3.345-1.206-4.352-3.124-4.352-1.81 0-3.16 1.007-3.266 4.424m-5.893 2.086c0-7.518 4.189-9.892 9.266-9.892 6.568 0 8.734 3.993 8.734 9.353 0 .863-.071 1.69-.071 1.69h-12.036v.504c0 2.446.852 4.856 3.515 4.856 1.74 0 2.662-.792 2.982-2.662l5.255.324c-.71 3.13-2.556 5.935-8.414 5.935-5.93 0-9.231-3.31-9.231-10.108m31.102-5.057c-2.938 0-4.263 2.051-4.263 4.982V67h-5.66V52.018c0-1.245-.107-4.212-.179-4.652h5.517c.07.88.215 2.418.25 3.554.538-2.235 2.15-3.92 5.015-3.92.25 0 .788 0 1.218.074v4.871c-.788-.11-1.29-.11-1.898-.11m13.38-.906c-2.254 0-3.65 1.571-3.65 5.75 0 3.857 1.145 5.785 3.614 5.785 1.897 0 3.829-1.286 3.829-5.857 0-4.32-1.86-5.678-3.793-5.678m-9.482 5.75c0-6.143 2.505-9.679 7.479-9.679 2.755 0 5.045 1.25 5.903 3.607a69.67 69.67 0 0 1 .286-3.25h5.332c-.072.608-.144 3.107-.144 4.536v14.75c0 5.643-3.291 8.357-9.517 8.357-5.868 0-8.158-2.571-8.659-5.607l5.51-.536c.286 1.536 1.253 2.607 3.328 2.607 2.29 0 3.721-1.178 3.721-4.678V64c0-.286 0-.75.036-1.107-.894 2.25-2.899 3.571-6.154 3.571-4.902 0-7.121-3.714-7.121-9.785m23-8.285h6V67h-6V48.394Zm0-7.394h6v5.068h-6V41Zm20.67 18.338V57.9h-2.495c-1.872 0-3.597.684-3.597 2.842 0 1.403.88 2.662 2.752 2.662 1.945 0 3.34-1.439 3.34-4.065Zm8.33 7.518c-1.248.108-1.835.144-3.083.144-2.789 0-4.733-1.223-4.77-3.56-.917 2.445-3.12 3.56-5.798 3.56-4.367 0-6.349-2.842-6.349-5.756 0-4.496 3.267-6.222 9.725-6.222h1.945v-1.619c0-2.194-1.028-3.021-2.789-3.021-1.835 0-2.825 1.006-2.825 2.805l-5.285-.324c.33-3.453 2.973-5.863 8.44-5.863 5.541 0 8.036 2.446 8.036 7.05v7.59c0 .9.33 1.403 1.395 1.403h1.358v3.813Z" opacity=".9"/><path d="M75.02 37.987a4.967 4.967 0 1 1 7.025 7.025 4.967 4.967 0 0 1-7.026-7.025Zm-9.134 9.133a4.968 4.968 0 1 1 7.026 7.026 4.968 4.968 0 0 1-7.026-7.026Zm0-18.266a4.968 4.968 0 1 1 7.026 7.027 4.968 4.968 0 0 1-7.025-7.027Zm-9.133 27.4a4.968 4.968 0 1 1 7.026 7.026 4.968 4.968 0 0 1-7.026-7.027Zm0-36.533a4.968 4.968 0 1 1 7.026 7.027 4.968 4.968 0 0 1-7.026-7.027ZM47.62 65.387a4.968 4.968 0 1 1 7.026 7.024 4.968 4.968 0 0 1-7.026-7.024Zm0-54.799a4.968 4.968 0 1 1 7.026 7.025 4.968 4.968 0 0 1-7.026-7.025Zm-9.133 27.4a4.968 4.968 0 1 1 7.026 7.025 4.968 4.968 0 0 1-7.026-7.026Zm0 36.531a4.968 4.968 0 1 1 7.026 7.027 4.968 4.968 0 0 1-7.026-7.027Zm0-73.064a4.968 4.968 0 1 1 7.026 7.026 4.968 4.968 0 0 1-7.026-7.026Zm-9.133 27.4a4.968 4.968 0 1 1 7.026 7.024 4.968 4.968 0 0 1-7.026-7.025Zm0 36.532a4.968 4.968 0 1 1 7.026 7.024 4.968 4.968 0 0 1-7.026-7.024Zm0-54.799a4.968 4.968 0 1 1 7.026 7.025 4.968 4.968 0 0 1-7.026-7.025Zm-9.133 9.133a4.968 4.968 0 1 1 7.025 7.025 4.968 4.968 0 0 1-7.025-7.025Zm0 36.533a4.968 4.968 0 1 1 7.025 7.024 4.968 4.968 0 0 1-7.025-7.024Zm-9.133-27.4a4.968 4.968 0 1 1 7.026 7.027 4.968 4.968 0 0 1-7.026-7.027Zm0 18.266a4.968 4.968 0 1 1 7.025 7.026 4.968 4.968 0 0 1-7.025-7.026Zm-9.133-9.133a4.967 4.967 0 1 1 7.025 7.025 4.967 4.967 0 0 1-7.025-7.025Z" opacity=".5"/><path d="M56.753 37.987a4.968 4.968 0 1 1 7.026 7.027 4.968 4.968 0 0 1-7.026-7.027ZM47.62 47.12a4.967 4.967 0 1 1 7.026 7.025 4.967 4.967 0 0 1-7.026-7.025Zm0-18.266a4.968 4.968 0 1 1 7.026 7.025 4.968 4.968 0 0 1-7.026-7.025Zm-9.133 27.4a4.968 4.968 0 1 1 7.026 7.026 4.968 4.968 0 0 1-7.026-7.027Zm0-36.533a4.968 4.968 0 1 1 7.026 7.026 4.968 4.968 0 0 1-7.026-7.026Zm-9.133 27.4a4.967 4.967 0 1 1 7.025 7.024 4.967 4.967 0 0 1-7.025-7.025Zm-9.133-9.134a4.967 4.967 0 1 1 7.025 7.025 4.967 4.967 0 0 1-7.025-7.025Z"/></g></svg>