<svg xmlns="http://www.w3.org/2000/svg" width="298" height="76"><g fill="none" fill-rule="evenodd"><path fill="#008143" d="M128.117 27.415a132.549 132.549 0 0 1-25.014 14.292 52.07 52.07 0 0 1-14.3 3.92 87.19 87.19 0 0 1-10.96.682v29.679h73.63V10.413l-23.356 17.002"/><path fill="#008143" d="M128.117 27.415a132.549 132.549 0 0 1-25.014 14.292 52.07 52.07 0 0 1-14.3 3.92 87.19 87.19 0 0 1-10.96.682v29.679h73.63V10.413l-23.356 17.002m-104.759 0a132.641 132.641 0 0 0 25.014 14.292 52.07 52.07 0 0 0 14.3 3.92c3.59.455 7.25.682 10.964.682v29.679H0V10.413l23.355 17.002h.003"/><path fill="#003967" d="M77.842-.34v42.406c3.533 0 7.015-.22 10.438-.649a47.691 47.691 0 0 0 13.155-3.602 128.58 128.58 0 0 0 24.218-13.84l25.82-18.792V-.34h-73.63m-4.207 0v42.406c-3.536 0-7.018-.22-10.441-.649a47.691 47.691 0 0 1-13.155-3.602 128.487 128.487 0 0 1-24.218-13.84L0 5.183V-.34h73.636m106.121 43.355V16.624h9.63v25.658c0 6.675 3.07 9.768 8.491 9.768 5.537 0 8.304-3.213 8.304-10.067v-25.36h9.687v25.964c0 11.71-6.917 17.048-18.178 17.048-10.773 0-17.934-4.916-17.934-16.62m64.665 16.012V39.981c0-4.553-1.271-6.854-5-6.854-3.856 0-6.023 3.333-6.023 8.67v17.23h-9.447V34.033c0-3.339-.121-5.705-.18-7.521h9.027c.125 1.152.419 4.853.484 6.672 1.62-5.155 5.658-7.276 10.29-7.276 8.125 0 10.414 5.516 10.414 11.584v21.535h-9.565m32.45-18.379h-5.355V51.99h5.658c4.453 0 7.46-1.457 7.46-5.822 0-4.308-3.488-5.52-7.763-5.52Zm-1.142-17.107h-4.213v9.885h4.272c4.575 0 6.558-1.514 6.558-4.975 0-3.576-2.105-4.91-6.617-4.91Zm2.342 35.486h-16.007V16.624h14.564c9.752 0 15.348 3.578 15.348 10.738 0 4.792-2.523 7.943-7.585 9.16 6.442.85 9.999 4.73 9.999 10.37 0 8.557-6.867 12.135-16.32 12.135Z"/></g></svg>